<?xml version="1.0" encoding="iso-8859-1"?>
<!-- Uploaded to: SVG Repo, www.svgrepo.com, Generator: SVG Repo Mixer Tools -->
<svg height="800px" width="800px" version="1.1" id="Layer_1" xmlns="http://www.w3.org/2000/svg" xmlns:xlink="http://www.w3.org/1999/xlink" 
	 viewBox="0 0 392.533 392.533" xml:space="preserve">
<path style="fill:#56ACE0;" d="M273.939,69.818H70.432c-7.24,0-13.123,5.883-13.123,13.123v227.943h229.818V83.006
	C287.127,75.701,281.244,69.818,273.939,69.818z"/>
<path style="fill:#FFC10D;" d="M70.432,370.747h203.507c7.24,0,13.123-5.883,13.123-13.123v-24.954H57.374v24.954
	C57.374,364.865,63.257,370.747,70.432,370.747z"/>
<path style="fill:#FFFFFF;" d="M191.58,185.212c0-10.667-8.663-19.329-19.329-19.329c-10.667,0-19.329,8.663-19.329,19.329
	c0,10.667,8.663,19.394,19.329,19.394C182.917,204.606,191.58,195.879,191.58,185.212z"/>
<path style="fill:#FFC10D;" d="M335.095,262.853V34.909c0-7.176-5.883-13.123-13.123-13.123H118.529
	c-7.24,0-13.123,5.883-13.123,13.123v13.123h168.663c19.265,0,34.909,15.709,34.909,34.909v179.976h26.117V262.853z"/>
<path style="fill:#FFFFFF;" d="M308.913,284.638v38.012h13.123c7.24,0,13.123-5.883,13.123-13.123v-24.954h-26.246V284.638
	L308.913,284.638z"/>
<g>
	<path style="fill:#194F82;" d="M142.384,117.851h59.669c6.012,0,10.925-4.848,10.925-10.925c0-6.012-4.848-10.925-10.925-10.925
		h-59.669c-6.012,0-10.925,4.848-10.925,10.925C131.459,112.937,136.372,117.851,142.384,117.851z"/>
	<path style="fill:#194F82;" d="M172.186,144.032c-22.691,0-41.18,18.489-41.18,41.18s18.489,41.18,41.18,41.18
		s41.18-18.489,41.18-41.18S194.941,144.032,172.186,144.032z M172.186,204.541c-10.667,0-19.329-8.663-19.329-19.394
		c0-10.667,8.663-19.329,19.329-19.329s19.329,8.663,19.329,19.329C191.58,195.879,182.853,204.541,172.186,204.541z"/>
	<path style="fill:#194F82;" d="M322.036,0H118.529C99.265,0,83.62,15.709,83.62,34.909v13.123H70.497
		c-19.265-0.065-34.909,15.58-34.909,34.844v238.869v35.879c0,19.265,15.709,34.909,34.909,34.909h203.507
		c19.265,0,34.909-15.709,34.909-34.909v-13.123h13.123c19.265,0,34.909-15.709,34.909-34.909V34.909
		C356.945,15.709,341.301,0,322.036,0z M287.127,357.624c0,7.24-5.883,13.123-13.123,13.123H70.432
		c-7.24,0-13.123-5.883-13.123-13.123v-24.954h229.818V357.624L287.127,357.624z M119.628,310.885
		c1.164-28.057,24.242-50.554,52.558-50.554s51.394,22.497,52.558,50.554H119.628z M287.127,310.885h-40.598
		c-1.164-40.016-34.004-72.339-74.343-72.339s-73.18,32.194-74.343,72.339H57.374v-118.82h17.519
		c6.012,0,10.925-4.848,10.925-10.925c0-6.077-4.848-10.925-10.925-10.925H57.374v-21.786h32.711
		c6.012,0,10.925-4.848,10.925-10.925c0-6.012-4.848-10.925-10.925-10.925H57.374V82.812c0-7.176,5.883-13.123,13.123-13.123
		h203.507c7.24,0,13.123,5.883,13.123,13.123v227.879h0V310.885z M335.095,309.657c0,7.24-5.883,13.123-13.123,13.123h-13.123
		v-0.905v-37.107h26.182v24.889L335.095,309.657L335.095,309.657z M335.095,262.853h-26.182V82.877
		c0-19.265-15.709-34.909-34.909-34.909H105.341V34.844c0-7.176,5.883-13.123,13.123-13.123h203.507
		c7.24,0,13.123,5.883,13.123,13.123V262.853L335.095,262.853z"/>
</g>
<path style="fill:#FFC10D;" d="M172.186,260.396c-28.251,0-51.394,22.497-52.558,50.554h105.115
	C223.58,282.893,200.566,260.396,172.186,260.396z"/>
</svg>