<?xml version="1.0" ?>
<!-- Uploaded to: SVG Repo, www.svgrepo.com, Generator: SVG Repo Mixer Tools -->
<svg width="800px" height="800px" viewBox="0 0 64 64" version="1.1" xml:space="preserve" xmlns="http://www.w3.org/2000/svg" xmlns:xlink="http://www.w3.org/1999/xlink">
<style type="text/css">
	.st0{fill:#FFEEA9;}
	.st1{fill:#D32436;}
	.st2{fill:#8DD1D3;}
	.st3{fill:#330D00;}
	.st4{fill:none;stroke:#330D00;stroke-linecap:round;stroke-linejoin:round;stroke-miterlimit:10;}
</style>
<g id="_x34_0-Id_Card"/>
<g id="_x33_9-Formula"/>
<g id="_x33_8-Elbow"/>
<g id="_x33_7-Diploma">
<g>
<g>
<path class="st0" d="M62.9,9.4v39.7H57l-3.6-6.3c-0.4,0-0.7-0.1-1-0.2c-0.3-0.2-0.7-0.2-1-0.2c-0.9,0-1.9,0.6-2.2,1.5     c-0.2,0.6-0.6,1-1,1.2l2.3,4h-6.6l2.2-3.9c-0.5-0.3-0.9-0.7-1.2-1.3c-0.3-1-1.2-1.6-2.2-1.6c-0.3,0-0.7,0.1-1,0.2     c-0.3,0.1-0.5,0.2-0.8,0.2l-3.6,6.4H1.1V9.4H62.9z"/>
</g>
<g>
<path class="st1" d="M57,32c-1-0.4-1.5-1.3-1.5-2.2c0-0.4,0.1-0.7,0.2-1c0.8-1.7-0.5-3.4-2.1-3.4c-0.3,0-0.6,0.1-1,0.2     c-0.3,0.1-0.7,0.2-1,0.2c-0.9,0-1.9-0.6-2.2-1.6c-0.4-1-1.3-1.6-2.2-1.6c-0.9,0-1.8,0.5-2.2,1.5c-0.4,1-1.2,1.5-2.2,1.5     c-0.3,0-0.7-0.1-1-0.2c-1.6-0.8-3.4,0.5-3.4,2.1c0,0.3,0.1,0.6,0.2,1c0.2,0.3,0.2,0.7,0.2,1c0,0.9-0.6,1.9-1.6,2.2     c-1,0.4-1.6,1.3-1.6,2.2c0,0.9,0.5,1.8,1.5,2.2c1,0.4,1.5,1.2,1.5,2.2c0,0.3-0.1,0.7-0.2,1c-0.8,1.7,0.5,3.4,2.1,3.4h0.2     c0.3,0,0.5-0.1,0.8-0.2c0.3-0.2,0.7-0.2,1-0.2c1,0,1.9,0.6,2.2,1.6c0.2,0.6,0.7,1.1,1.2,1.3c0.3,0.2,0.7,0.2,1,0.2     c0.4,0,0.8-0.1,1.1-0.3c0.5-0.2,0.8-0.7,1-1.2c0.4-1,1.3-1.5,2.2-1.5c0.4,0,0.7,0.1,1,0.2c0.4,0.2,0.7,0.2,1,0.2     c1.3,0,2.3-1.1,2.3-2.3c0-0.3-0.1-0.7-0.2-1c-0.1-0.3-0.2-0.7-0.2-1c0-1,0.6-1.9,1.6-2.2C59,35.6,59,32.7,57,32z M47.1,39.7     c-3.1,0-5.7-2.5-5.7-5.7c0-3.1,2.5-5.7,5.7-5.7c3.1,0,5.7,2.5,5.7,5.7C52.8,37.2,50.2,39.7,47.1,39.7z"/>
</g>
<g>
<path class="st2" d="M46,45.2l-2.2,3.9l-3,5.4l-1.9-2.4l-3-0.4l1.4-2.6l3.6-6.4c0.3,0,0.5-0.1,0.8-0.2c0.3-0.2,0.7-0.2,1-0.2     c1,0,1.9,0.6,2.2,1.6C45,44.5,45.5,45,46,45.2z"/>
</g>
<g>
<path class="st2" d="M58.4,51.7l-3,0.4l-1.9,2.4l-3-5.4l-2.3-4c0.5-0.2,0.8-0.7,1-1.2c0.4-1,1.3-1.5,2.2-1.5c0.4,0,0.7,0.1,1,0.2     c0.4,0.2,0.7,0.2,1,0.2l3.6,6.3L58.4,51.7z"/>
</g>
<g>
<g>
<path class="st3" d="M62.9,8.3H1.1C0.5,8.3,0,8.8,0,9.4v39.7c0,0.6,0.5,1.1,1.1,1.1h34.2l-0.5,0.9c-0.2,0.3-0.2,0.7,0,1      c0.2,0.3,0.5,0.6,0.8,0.6l2.6,0.4l1.7,2.1c0.2,0.3,0.5,0.4,0.9,0.4c0,0,0.1,0,0.1,0c0.4,0,0.7-0.2,0.9-0.6l2.7-4.8h5.3l2.7,4.8      c0.2,0.3,0.5,0.5,0.9,0.6c0,0,0.1,0,0.1,0c0.3,0,0.6-0.1,0.9-0.4l1.7-2.1l2.6-0.4c0.4,0,0.7-0.3,0.8-0.6c0.2-0.3,0.2-0.7,0-1      l-0.5-0.9h4c0.6,0,1.1-0.5,1.1-1.1V9.4C64,8.8,63.5,8.3,62.9,8.3z M37.6,35.2c-0.7-0.3-0.8-1-0.8-1.2c0-0.4,0.2-1,0.8-1.2      c1.4-0.5,2.3-1.8,2.3-3.2c0-0.5-0.1-1.1-0.3-1.4c-0.1-0.2-0.1-0.4-0.1-0.5c0-0.4,0.2-0.8,0.6-1c0.2-0.1,0.6-0.3,1.2,0      c0.5,0.2,1,0.3,1.5,0.3c1.5,0,2.7-0.9,3.2-2.3c0.3-0.7,1-0.8,1.2-0.8c0.4,0,1,0.2,1.2,0.8c0.7,1.9,2.7,2.8,4.7,2      c0.2-0.1,0.4-0.1,0.5-0.1c0.4,0,0.8,0.2,1,0.6c0.1,0.2,0.3,0.6,0.1,1.1c-0.3,0.4-0.4,1-0.4,1.6c0,1.4,0.9,2.8,2.3,3.2      c0.7,0.3,0.8,1,0.8,1.2c0,0.2-0.1,0.9-0.8,1.2c-1.4,0.5-2.3,1.8-2.3,3.3c0,0.5,0.1,0.9,0.3,1.5c0.1,0.1,0.1,0.3,0.1,0.5      c0,0.9-1.1,1.4-1.8,1.1c-1.8-0.9-4.1,0.1-4.8,1.9c-0.1,0.3-0.3,0.5-0.5,0.6c-0.4,0.2-0.8,0.2-1.1,0c-0.3-0.2-0.5-0.4-0.6-0.7      c-0.1-0.3-0.3-0.6-0.4-0.8c-0.1-0.1-0.1-0.2-0.2-0.2c-0.1-0.2-0.3-0.3-0.5-0.5c-0.1-0.1-0.2-0.2-0.4-0.3      c-0.2-0.1-0.4-0.2-0.5-0.3c-0.1,0-0.3-0.1-0.4-0.1c-0.2-0.1-0.4-0.1-0.6-0.1c-0.1,0-0.1,0-0.2,0c-0.5,0-1,0.1-1.5,0.3      c-0.1,0-0.2,0.1-0.3,0.1c-0.1,0-0.1,0-0.2,0c-0.4,0-0.8-0.2-1-0.6c-0.1-0.2-0.3-0.6,0-1.2c0.2-0.5,0.3-1,0.3-1.5      C39.9,36.9,39,35.7,37.6,35.2z M40.6,52.6l-0.9-1.1c-0.2-0.2-0.4-0.4-0.7-0.4l-1.4-0.2l4-7.1c0.2-0.1,0.4-0.1,0.6-0.2      c0.7-0.3,1.5,0,1.7,0.7c0.2,0.5,0.4,0.9,0.8,1.2c0,0,0,0,0,0.1L40.6,52.6z M45.7,48.1l0.9-1.5c0.2,0,0.3,0.1,0.5,0.1      c0.2,0,0.4,0,0.6-0.1l0.9,1.6H45.7z M55.2,51.1c-0.3,0-0.5,0.2-0.7,0.4l-0.9,1.1l-4-7.2c0,0,0,0,0,0c0.3-0.3,0.5-0.7,0.6-1.1      c0.2-0.7,1-1,1.7-0.7c0.3,0.1,0.5,0.2,0.8,0.3c0,0,0,0,0,0l3.9,6.9L55.2,51.1z M61.8,48.1h-4.1l-2.6-4.5c1.1-0.6,1.8-1.7,1.8-3      c0-0.5-0.1-1-0.3-1.4c-0.1-0.2-0.1-0.4-0.1-0.6c0-0.4,0.2-1,0.8-1.2c1.4-0.5,2.3-1.8,2.3-3.2c0-1.5-0.9-2.7-2.3-3.2h0      c-0.5-0.2-0.8-0.6-0.8-1.2c0-0.1,0-0.3,0.1-0.5c0.5-1.1,0.5-2.3-0.2-3.3c-0.9-1.5-3-2-4.3-1.3c-0.6,0.3-1.5,0-1.7-0.7      c-0.5-1.4-1.8-2.3-3.3-2.3c-1.5,0-2.7,0.9-3.2,2.2c-0.2,0.5-0.6,0.8-1.2,0.8c-0.1,0-0.3,0-0.5-0.1c-1.1-0.5-2.3-0.5-3.3,0.1      c-1,0.6-1.6,1.8-1.6,2.9c0,0.5,0.1,1,0.3,1.5c0.1,0.1,0.1,0.3,0.1,0.5c0,0.5-0.3,1-0.8,1.2c-1.4,0.5-2.3,1.8-2.3,3.3      c0,1.5,0.9,2.7,2.3,3.2c0.5,0.2,0.8,0.6,0.8,1.2c0,0.2,0,0.4-0.1,0.5c-0.5,1.1-0.5,2.3,0.2,3.3c0.3,0.6,0.8,1,1.4,1.3l-2.6,4.6      H2.2V10.5h59.6V48.1z"/>
</g>
<g>
<path class="st3" d="M47.1,40.8c3.7,0,6.8-3,6.8-6.8c0-3.7-3-6.8-6.8-6.8c-3.7,0-6.8,3-6.8,6.8C40.3,37.8,43.4,40.8,47.1,40.8z       M47.1,29.5c2.5,0,4.6,2,4.6,4.6c0,2.5-2,4.6-4.6,4.6c-2.5,0-4.6-2-4.6-4.6C42.5,31.6,44.6,29.5,47.1,29.5z"/>
</g>
<g>
<path class="st3" d="M7.7,20.5h22.1c0.6,0,1.1-0.5,1.1-1.1c0-0.6-0.5-1.1-1.1-1.1H7.7c-0.6,0-1.1,0.5-1.1,1.1      C6.6,20,7.1,20.5,7.7,20.5z"/>
</g>
<g>
<path class="st3" d="M7.7,27.1h22.1c0.6,0,1.1-0.5,1.1-1.1c0-0.6-0.5-1.1-1.1-1.1H7.7c-0.6,0-1.1,0.5-1.1,1.1      C6.6,26.6,7.1,27.1,7.7,27.1z"/>
</g>
<g>
<path class="st3" d="M7.7,33.7h22.1c0.6,0,1.1-0.5,1.1-1.1s-0.5-1.1-1.1-1.1H7.7c-0.6,0-1.1,0.5-1.1,1.1S7.1,33.7,7.7,33.7z"/>
</g>
<g>
<path class="st3" d="M7.7,40.3h22.1c0.6,0,1.1-0.5,1.1-1.1s-0.5-1.1-1.1-1.1H7.7c-0.6,0-1.1,0.5-1.1,1.1S7.1,40.3,7.7,40.3z"/>
</g>
</g>
</g>
</g>
<g id="_x33_6-Laptop"/>
<g id="_x33_5-Brush"/>
<g id="_x33_4-Baseball"/>
<g id="_x33_3-Student"/>
<g id="_x33_2-Highlighter"/>
<g id="_x33_1-Ruler"/>
<g id="_x33_0-Caliper"/>
<g id="_x32_9-Ruler_Elbow"/>
<g id="_x32_8-Abacus"/>
<g id="_x32_7-Id_Card"/>
<g id="_x32_6-Eraser"/>
<g id="_x32_5-Pencil"/>
<g id="_x32_4-Ink"/>
<g id="_x32_3-Graduation_Cap"/>
<g id="_x32_2-_Sling_Bag"/>
<g id="_x32_1-Rugby_Ball"/>
<g id="_x32_0-Clock"/>
<g id="_x31_9-Certificate"/>
<g id="_x31_8-Idea"/>
<g id="_x31_7-Bookshelf"/>
<g id="_x31_6-Formula"/>
<g id="_x31_5-Bell"/>
<g id="_x31_4-Magnifying_Glass"/>
<g id="_x31_3-Calculator"/>
<g id="_x31_2-Eyeglasses"/>
<g id="_x31_1-Bus"/>
<g id="_x31_0-Trophy"/>
<g id="_x39_-Globe"/>
<g id="_x38_-Basket_Ball"/>
<g id="_x37_-Pen"/>
<g id="_x36_-Board"/>
<g id="_x35_-Bag"/>
<g id="_x34_-Exam"/>
<g id="_x33_-Book"/>
<g id="_x32_-Ruler"/>
<g id="_x31_-Building"/>
</svg>